# AST/ASF file generated using VICON BodyLanguage
# -----------------------------------------------
:version 1.10
:name VICON
:units
  mass 1.0
  length 0.45
  angle deg
:documentation
   .ast/.asf automatically generated from VICON data using
   VICON BodyBuilder and BodyLanguage model FoxedUp or BRILLIANT.MOD
:root
   order TX TY TZ RX RY RZ
   axis XYZ
   position 0 0 0  
   orientation 0 0 0 
:bonedata
  begin
     id 1 
     name lhipjoint
     direction 0.661853 -0.702389 0.261917 
     length 2.64193 
     axis 0 0 0  XYZ
  end
  begin
     id 2 
     name lfemur
     direction 0.34202 -0.939693 0  
     length 7.01722  
     axis 0 0 20  XYZ
    dof rx ry rz
    limits (-160.0 20.0)
           (-70.0 70.0)
           (-60.0 70.0)
  end
  begin
     id 3 
     name ltibia
     direction 0.34202 -0.939693 0   
     length 8.25008   
     axis 0 0 20   XYZ
    dof rx
    limits (-10.0 170.0)
  end
  begin
     id 4 
     name lfoot
     direction 0.0709916 -0.195048 0.978221   
     length 2.31941   
     axis -90 7.62852e-016 20   XYZ
    dof rx rz
    limits (-45.0 90.0)
           (-70.0 20.0)
  end
  begin
     id 5 
     name ltoes
     direction 1.53586e-011 -4.22017e-011 1   
     length 1.16486   
     axis -90 7.62852e-016 20   XYZ
    dof rx
    limits (-90.0 20.0)
  end
  begin
     id 6 
     name rhipjoint
     direction -0.638185 -0.721362 0.268992   
     length 2.57244  
     axis 0 0 0  XYZ 
  end
  begin
     id 7 
     name rfemur
     direction -0.34202 -0.939693 0   
     length 7.07017   
     axis 0 0 -20   XYZ
    dof rx ry rz
    limits (-160.0 20.0)
           (-70.0 70.0)
           (-70.0 60.0)
  end
  begin
     id 8 
     name rtibia
     direction -0.34202 -0.939693 0   
     length 8.20386   
     axis 0 0 -20   XYZ
    dof rx
    limits (-10.0 170.0)
 end
 begin
     id 9 
     name rfoot
     direction -0.0822429 -0.225961 0.970658   
     length 2.32215  
     axis -90 -7.62852e-016 -20   XYZ
    dof rx rz
    limits (-45.0 90.0)
           (-20.0 70.0)
  end
  begin
     id 10 
     name rtoes
     direction -1.53597e-011 -4.21689e-011 1   
     length 1.16333   
     axis -90 -7.62852e-016 -20   XYZ
    dof rx
    limits (-90.0 20.0)
  end
  begin
     id 11 
     name lowerback
     direction -0.0131557 0.998589 -0.0514484   
     length 2.14993   
     axis 0 0 0   XYZ
    dof rx ry rz
    limits (-20.0 45.0)
           (-30.0 30.0)
           (-30.0 30.0)
  end
  begin
     id 12 
     name upperback
     direction -0.000776481 0.999993 0.00352685   
     length 2.15301   
     axis 0 0 0   XYZ
    dof rx ry rz
    limits (-20.0 45.0)
           (-30.0 30.0)
           (-30.0 30.0)
  end
  begin
     id 13 
     name thorax
     direction 0.00438186 0.999609 0.0276143   
     length 2.15424   
     axis 0 0 0   XYZ
    dof rx ry rz
    limits (-20.0 45.0)
           (-30.0 30.0)
           (-30.0 30.0)
  end
  begin
     id 14 
     name lowerneck
     direction -0.0488006 0.998094 0.0377807   
     length 1.90481   
     axis 0 0 0   XYZ
    dof rx ry rz
    limits (-20.0 45.0)
           (-30.0 30.0)
           (-30.0 30.0)
  end
  begin
     id 15 
     name upperneck
     direction 0.0443769 0.990702 -0.12861   
     length 1.91305   
     axis 0 0 0   XYZ
    dof rx ry rz
    limits (-20.0 45.0)
           (-30.0 30.0)
           (-30.0 30.0)
  end
  begin
     id 16
     name head
     direction 0.0165599 0.998647 -0.0492982  
     length 1.92369  
     axis 0 0 0   XYZ
    dof rx ry rz
    limits (-20.0 45.0)
           (-30.0 30.0)
           (-30.0 30.0)
  end
  begin
     id 17 
     name lclavicle
     direction 0.911936 0.410197 -0.0105506  
     length 3.52622  
     axis 0 0 0   XYZ
    dof ry rz
    limits (-20.0 10.0)
           (0.0 20.0)
  end
  begin
     id 18 
     name lhumerus
     direction 1 -4.48974e-011 -2.48591e-028   
     length 5.47651   
     axis 180 -30 -90   XYZ
    dof rx ry rz
    limits (-60.0 90.0)
           (-90.0 90.0)
           (-90.0 90.0)
  end
  begin
     id 19
     name lradius
     direction 1 -4.48938e-011 -4.40099e-027   
     length 3.09058   
     axis 180 -30 -90   XYZ
    dof rx
    limits (-10.0 170.0)
  end
  begin
     id 20
     name lwrist
     direction 1 -4.49042e-011 -2.99852e-027   
     length 1.54529   
     axis 1.95339e-015 90 90   XYZ
    dof ry
    limits (-180.0 0.0)
 end
  begin
     id 21 
     name lhand
     direction 1 -4.48815e-011 -5.98193e-027   
     length 0.771611   
     axis 3.82337e-015 90 90   XYZ
    dof rx rz
    limits (-90.0 90.0)
           (-45.0 45.0)
  end
  begin
     id 22 
     name lfingers
     direction 1 -4.49034e-011 -1.1993e-026   
     length 0.622093   
     axis 7.64668e-015 90 90   XYZ
    dof rx
    limits (0.0 90.0)
  end
  begin
     id 23
     name lthumb
     direction 0.707107 -6.34867e-011 0.707107   
     length 0.893204   
     axis -90 45 -1.62303e-014   XYZ
    dof rx rz
    limits (-45.0 45.0)
           (-45.0 45.0)
  end
  begin
     id 24 
     name rclavicle
     direction -0.93442 0.355634 -0.0195692   
     length 3.62463  
     axis 0 0 0   XYZ 
    dof ry rz
    limits (-10.0 20.0)
           (-20.0 0.0)
  end
  begin
     id 25 
     name rhumerus
     direction -1 -4.48957e-011 -1.19147e-027  
     length 5.14182   
     axis 180 30 90   XYZ
    dof rx ry rz
    limits (-90.0 60.0)
           (-90.0 90.0)
           (-90.0 90.0)
  end
  begin
     id 26 
     name rradius
     direction -1 -4.48952e-011 -3.81062e-027   
     length 3.35565   
     axis 180 30 90   XYZ
    dof rx
    limits (-10.0 170.0)
  end
  begin
     id 27 
     name rwrist
     direction -1 -4.48973e-011 -2.99621e-027   
     length 1.67782   
     axis 1.95339e-015 -90 -90   XYZ
    dof ry
    limits (-180.0 0.0)
  end
  begin
     id 28
     name rhand
     direction -1 -4.48895e-011 -5.98727e-027   
     length 0.801042   
     axis 3.82337e-015 -90 -90   XYZ
    dof rx rz
    limits (-90.0 90.0)
           (-45.0 45.0)
  end
  begin
     id 29
     name rfingers
     direction -1 -4.49065e-011 -1.19972e-026   
     length 0.645821   
     axis 7.64668e-015 -90 -90   XYZ
    dof rx
    limits (0.0 90.0)
  end
  begin
     id 30
     name rthumb
     direction -0.707107 -6.34957e-011 0.707107   
     length 0.927273   
     axis -90 -45 1.62303e-014   XYZ
    dof rx rz
    limits (-45.0 45.0)
           (-45.0 45.0)
  end
:hierarchy
  begin
    root lhipjoint rhipjoint lowerback
    lhipjoint lfemur
    lfemur ltibia
    ltibia lfoot
    lfoot ltoes
    rhipjoint rfemur
    rfemur rtibia
    rtibia rfoot
    rfoot rtoes
    lowerback upperback
    upperback thorax
    thorax lowerneck lclavicle rclavicle
    lowerneck upperneck
    upperneck head
    lclavicle lhumerus
    lhumerus lradius
    lradius lwrist
    lwrist lhand lthumb
    lhand lfingers
    rclavicle rhumerus
    rhumerus rradius
    rradius rwrist
    rwrist rhand rthumb
    rhand rfingers
  end

#!OML:ASF E:\Style4\Style4.ASF
:FULLY-SPECIFIED
:DEGREES
270
root 0.207373 16.6691 -1.18759 5.92801 13.9735 3.41112
lowerback 17.2209 3.55363 -0.944589
upperback 7.75885 4.56413 0.152323
thorax -1.42917 2.27491 -0.131406
lowerneck 2.51066 -3.55877 -5.26769
upperneck -2.32323 -4.85175 3.2795
head -0.936537 -2.42654 1.99541
rclavicle -4.77083e-015 2.70347e-014
rhumerus -18.0455 11.9661 -86.8696
rradius 121.515
rwrist 26.1245
rhand 30.7553 -6.82526
rfingers 7.12502
rthumb 54.3847 -25.3998
lclavicle -4.77083e-015 2.70347e-014
lhumerus -20.7585 -21.6337 87.4151
lradius 117.171
lwrist -16.9945
lhand 20.5212 42.993
lfingers 7.12502
lthumb 45.0203 66.4846
rfemur -32.5083 -11.6377 15.3996
rtibia 58.4369
rfoot -27.4952 -20.8943
rtoes -11.6009
lfemur -35.7982 -3.85313 -23.071
ltibia 54.6087
lfoot -23.0129 3.49851
ltoes -12.6939
271
root 0.206238 16.6699 -1.18578 5.95827 13.8862 3.26582
lowerback 17.1238 3.56305 -0.855081
upperback 7.78257 4.5924 0.192873
thorax -1.35046 2.29013 -0.136882
lowerneck 2.50191 -3.56198 -5.35383
upperneck -2.38104 -4.85747 3.3112
head -0.950522 -2.42859 2.02194
rclavicle 9.34288e-014 -5.48646e-014
rhumerus -18.0871 12.0378 -86.8798
rradius 121.653
rwrist 26.138
rhand 30.6265 -6.63843
rfingers 7.12502
rthumb 54.2693 -25.2927
lclavicle 9.34288e-014 -5.48646e-014
lhumerus -20.6441 -21.611 87.4002
lradius 117.078
lwrist -16.9958
lhand 20.6045 42.996
lfingers 7.12502
lthumb 45.0978 66.4569
rfemur -32.5799 -11.5622 15.5767
rtibia 58.416
rfoot -27.5142 -20.8504
rtoes -11.3014
lfemur -35.9071 -3.76844 -22.9046
ltibia 54.7103
lfoot -23.097 3.44474
ltoes -12.4174
272
root 0.20696 16.671 -1.18355 6.00209 13.7603 2.89545
lowerback 16.9688 3.58499 -0.513366
upperback 7.77214 4.6756 0.27278
thorax -1.2622 2.33739 -0.249112
lowerneck 2.55786 -3.56213 -5.41503
upperneck -2.46627 -4.86183 3.32232
head -0.985475 -2.43001 2.03971
rclavicle -4.05521e-014 -2.38542e-015
rhumerus -18.2334 12.061 -86.9197
rradius 121.865
rwrist 26.2322
rhand 30.5264 -6.4651
rfingers 7.12502
rthumb 54.1796 -25.181
lclavicle -4.05521e-014 -2.38542e-015
lhumerus -20.6037 -21.6469 87.4447
lradius 116.94
lwrist -17.069
lhand 20.5762 42.9145
lfingers 7.12502
lthumb 45.0715 66.3859
rfemur -32.7086 -11.4056 16.0139
rtibia 58.3709
rfoot -27.4379 -20.96
rtoes -11.5824
lfemur -36.0976 -3.61266 -22.5066
ltibia 54.8188
lfoot -23.1528 3.4635
ltoes -12.6254
273
root 0.206887 16.6689 -1.18217 6.05443 13.6832 2.69693
lowerback 16.8905 3.60492 -0.300331
upperback 7.74701 4.7339 0.293269
thorax -1.23334 2.37052 -0.352522
lowerneck 2.67858 -3.56679 -5.44193
upperneck -2.57515 -4.87359 3.35496
head -1.03915 -2.43597 2.06082
rclavicle 1.74931e-014 -1.11319e-014
rhumerus -18.3652 12.064 -86.9565
rradius 122.118
rwrist 26.1858
rhand 30.4559 -6.4429
rfingers 7.12502
rthumb 54.1163 -25.202
lclavicle 1.74931e-014 -1.11319e-014
lhumerus -20.6019 -21.7726 87.4704
lradius 116.828
lwrist -17.0856
lhand 20.2128 43.2382
lfingers 7.12502
lthumb 44.7332 66.842
rfemur -32.8217 -11.3269 16.2567
rtibia 58.3553
rfoot -27.383 -21.0029
rtoes -11.8404
lfemur -36.238 -3.52999 -22.2844
ltibia 54.8814
lfoot -23.1829 3.41146
ltoes -12.4508
274
root 0.204079 16.6692 -1.1797 6.09838 13.6256 2.80868
lowerback 16.8968 3.62378 -0.419277
upperback 7.75221 4.73902 0.238924
thorax -1.23567 2.3713 -0.34408
lowerneck 2.75316 -3.58484 -5.47231
upperneck -2.63389 -4.90144 3.38569
head -1.06816 -2.45006 2.07979
rclavicle 8.34896e-014 3.18055e-015
rhumerus -18.4258 12.1288 -87.0131
rradius 122.401
rwrist 26.0115
rhand 30.3777 -6.59436
rfingers 7.12502
rthumb 54.0462 -25.4011
lclavicle 8.34896e-014 3.18055e-015
lhumerus -20.4832 -21.9304 87.3923
lradius 116.676
lwrist -16.9806
lhand 20.0587 43.7416
lfingers 7.12502
lthumb 44.5897 67.401
rfemur -32.8686 -11.3339 16.1534
rtibia 58.373
rfoot -27.3574 -20.985
rtoes -11.9973
lfemur -36.2382 -3.51971 -22.3849
ltibia 54.8624
lfoot -23.1948 3.3695
ltoes -12.1862
275
root 0.200261 16.6707 -1.17887 6.12263 13.636 2.97202
lowerback 16.9619 3.62846 -0.552205
upperback 7.75868 4.72264 0.162268
thorax -1.26634 2.36157 -0.351163
lowerneck 2.79521 -3.60733 -5.46059
upperneck -2.66375 -4.93279 3.3917
head -1.0836 -2.46596 2.08176
rclavicle -1.82882e-014 -1.74931e-014
rhumerus -18.5036 12.073 -87.0911
rradius 122.708
rwrist 25.8548
rhand 30.3306 -6.53523
rfingers 7.12502
rthumb 54.0039 -25.3706
lclavicle -1.82882e-014 -1.74931e-014
lhumerus -20.4026 -22.1585 87.2759
lradius 116.549
lwrist -16.9022
lhand 20.4692 43.6256
lfingers 7.12502
lthumb 44.9719 67.1362
rfemur -32.8803 -11.372 15.98
rtibia 58.4103
rfoot -27.4477 -20.888
rtoes -11.3372
lfemur -36.178 -3.59972 -22.5444
ltibia 54.7748
lfoot -23.1597 3.45542
ltoes -12.5027
276
root 0.197224 16.6744 -1.1789 6.0711 13.6821 3.10764
lowerback 17.1016 3.63061 -0.594946
upperback 7.79651 4.71589 0.0813578
thorax -1.2948 2.35902 -0.418098
lowerneck 2.77769 -3.64141 -5.43538
upperneck -2.66359 -4.97591 3.40908
head -1.07858 -2.48798 2.08281
rclavicle 4.77083e-014 -7.15625e-015
rhumerus -18.5697 11.9585 -87.148
rradius 123.062
rwrist 25.737
rhand 30.1982 -6.45106
rfingers 7.12502
rthumb 53.8851 -25.3665
lclavicle 4.77083e-014 -7.15625e-015
lhumerus -20.3237 -22.3691 87.187
lradius 116.39
lwrist -16.8378
lhand 20.5458 43.1284
lfingers 7.12502
lthumb 45.0432 66.6109
rfemur -32.7964 -11.4237 15.8226
rtibia 58.4329
rfoot -27.466 -20.8994
rtoes -11.2283
lfemur -36.0209 -3.69369 -22.6846
ltibia 54.6565
lfoot -23.1052 3.53447
ltoes -12.5216
277
root 0.19332 16.6783 -1.17814 6.07044 13.6597 3.22219
lowerback 17.1483 3.64837 -0.681441
upperback 7.83716 4.72398 0.0147209
thorax -1.27662 2.36259 -0.442223
lowerneck 2.83539 -3.64053 -5.42573
upperneck -2.74969 -4.97612 3.42821
head -1.1158 -2.48817 2.09084
rclavicle -5.20816e-014 3.18055e-015
rhumerus -18.5915 11.9539 -87.2301
rradius 123.427
rwrist 25.6822
rhand 29.9763 -6.42273
rfingers 7.12502
rthumb 53.6856 -25.4711
lclavicle -5.20816e-014 3.18055e-015
lhumerus -20.2341 -22.4842 87.1503
lradius 116.181
lwrist -16.8396
lhand 20.3705 42.8353
lfingers 7.12502
lthumb 44.8801 66.382
rfemur -32.793 -11.4001 15.707
rtibia 58.4546
rfoot -27.4079 -20.9662
rtoes -11.562
lfemur -35.9139 -3.68949 -22.7968
ltibia 54.5364
lfoot -23.069 3.50133
ltoes -12.376
278
root 0.189758 16.68 -1.17794 6.10022 13.6234 3.27889
lowerback 17.1564 3.65048 -0.746169
upperback 7.85943 4.71614 -0.0126386
thorax -1.25974 2.3578 -0.432905
lowerneck 2.9402 -3.60527 -5.48464
upperneck -2.86101 -4.93554 3.44407
head -1.16993 -2.46724 2.11155
rclavicle 6.71892e-014 -5.1684e-014
rhumerus -18.5929 12.043 -87.2904
rradius 123.792
rwrist 25.5792
rhand 29.6964 -6.38462
rfingers 7.12502
rthumb 53.4338 -25.5984
lclavicle 6.71892e-014 -5.1684e-014
lhumerus -20.1601 -22.5586 87.1431
lradius 115.969
lwrist -16.7961
lhand 20.4756 42.9942
lfingers 7.12502
lthumb 44.9779 66.5025
rfemur -32.8282 -11.3744 15.6657
rtibia 58.4706
rfoot -27.3431 -20.9975
rtoes -11.4496
lfemur -35.8743 -3.65442 -22.8456
ltibia 54.4273
lfoot -23.0527 3.50522
ltoes -12.2541
279
root 0.18594 16.6815 -1.17652 6.15036 13.5782 3.38382
lowerback 17.1554 3.65971 -0.807401
upperback 7.88995 4.71746 -0.0749653
thorax -1.22602 2.3584 -0.462685
lowerneck 2.99945 -3.59608 -5.51912
upperneck -2.9284 -4.92847 3.40675
head -1.20223 -2.46242 2.10861
rclavicle -1.59028e-014 3.18055e-015
rhumerus -18.5596 12.0866 -87.3375
rradius 124.203
rwrist 25.4136
rhand 29.4289 -6.36293
rfingers 7.12502
rthumb 53.1928 -25.7325
lclavicle -1.59028e-014 3.18055e-015
lhumerus -20.0693 -22.7321 87.0855
lradius 115.794
lwrist -16.8304
lhand 20.7232 43.0837
lfingers 7.12502
lthumb 45.2081 66.5008
rfemur -32.8602 -11.342 15.5722
rtibia 58.479
rfoot -27.3257 -21.0005
rtoes -11.2396
lfemur -35.8283 -3.61294 -22.9428
ltibia 54.3037
lfoot -23.0474 3.51029
ltoes -12.1815
280
root 0.181985 16.6881 -1.1745 6.25133 13.5033 3.54783
lowerback 17.0994 3.70258 -0.900767
upperback 7.91881 4.75773 -0.17192
thorax -1.16491 2.3783 -0.514041
lowerneck 3.04006 -3.61039 -5.47342
upperneck -2.93579 -4.94959 3.3452
head -1.21298 -2.47255 2.08196
rclavicle 2.98177e-014 -1.59028e-015
rhumerus -18.5415 12.0228 -87.4017
rradius 124.657
rwrist 25.2469
rhand 29.208 -6.25852
rfingers 7.12502
rthumb 52.9935 -25.755
lclavicle 2.98177e-014 -1.59028e-015
lhumerus -20.0005 -22.9742 87.024
lradius 115.563
lwrist -16.8807
lhand 20.8359 42.9441
lfingers 7.12502
lthumb 45.313 66.3193
rfemur -32.934 -11.2542 15.4116
rtibia 58.4531
rfoot -27.3505 -20.9421
rtoes -11.1134
lfemur -35.7946 -3.5505 -23.1089
ltibia 54.1404
lfoot -22.9887 3.52212
ltoes -12.2051
281
root 0.176208 16.6974 -1.17155 6.31018 13.4093 3.63598
lowerback 17.0829 3.75997 -0.960499
upperback 7.93404 4.82205 -0.234182
thorax -1.13915 2.41006 -0.555375
lowerneck 3.16049 -3.61547 -5.43671
upperneck -3.01499 -4.96165 3.30769
head -1.2604 -2.47829 2.06861
rclavicle 6.36111e-015 -1.43125e-014
rhumerus -18.5117 11.9734 -87.4733
rradius 125.129
rwrist 25.1032
rhand 28.9908 -6.21797
rfingers 7.12502
rthumb 52.7974 -25.8378
lclavicle 6.36111e-015 -1.43125e-014
lhumerus -20.0442 -23.2098 87.0457
lradius 115.3
lwrist -16.892
lhand 20.6938 42.9257
lfingers 7.12502
lthumb 45.1808 66.3537
rfemur -32.9667 -11.1095 15.3418
rtibia 58.3872
rfoot -27.3032 -20.9752
rtoes -11.1796
lfemur -35.7164 -3.39744 -23.1875
ltibia 53.9586
lfoot -22.9228 3.41542
ltoes -12.0565
